<svg width="386" height="386" viewBox="0 0 386 386" fill="none" xmlns="http://www.w3.org/2000/svg">
<path d="M19.9425 0.5L0.5 19.9425L34.7502 79.1733L56.9617 75.9156L192.541 211.51L180.976 222.615C175.053 228.538 175.053 237.512 180.976 243.435L186.988 249.462C192.911 255.385 201.973 255.385 206.416 249.462L224.007 267.038C222.527 275.923 224.007 286.481 231.411 293.885L311.462 373.476C327.75 389.765 354.404 389.765 370.692 373.476C389.942 355.707 389.765 329.142 373.476 312.853L293.885 232.788C286.481 225.384 275.923 222.423 267.038 225.384L247.596 207.808C252.038 201.885 252.038 192.822 247.596 188.365L242.043 182.827C240.697 181.423 239.081 180.306 237.292 179.543C235.503 178.78 233.578 178.387 231.633 178.387C229.688 178.387 227.764 178.78 225.975 179.543C224.186 180.306 222.57 181.423 221.223 182.827L211.51 192.541L75.9304 56.9617L79.1585 34.7502L19.9425 0.5ZM308.693 0.959038C279.477 -1.46942 240.74 17.899 222.615 34.7354C200.315 57.0358 203.958 86.1921 221.683 114.342L190.231 145.808L212.443 170.788C224.289 160.423 241.762 160.423 253.608 170.788L259.635 176.8L261.027 178.192L273.983 165.236C300.756 180.976 328.624 183.242 349.873 161.993C370.603 142.743 393.082 95.2692 382.716 67.1346L341.077 110.166C335.154 116.089 326.18 116.089 320.257 110.166L277.211 67.1346C275.808 65.7885 274.691 64.1724 273.928 62.3834C273.164 60.5945 272.771 58.6697 272.771 56.7248C272.771 54.7799 273.164 52.8551 273.928 51.0662C274.691 49.2773 275.808 47.6611 277.211 46.315L320.272 3.28385C316.57 1.98077 312.868 1.31442 308.693 0.959038ZM145.808 185.596L92.1152 239.274C86.3455 237.992 80.4486 237.371 74.5385 237.423C33.0769 237.423 0.5 270 0.5 311.462C0.5 352.923 33.0769 385.5 74.5385 385.5C116 385.5 148.577 352.923 148.577 311.462C148.577 303.865 147.378 296.565 145.334 289.709L176.8 258.243L172.18 252.231C160.334 240.385 160.423 222.438 170.788 210.577L145.808 185.596ZM260.568 253.164C262.418 253.164 264.166 253.519 265.647 255.015L353.116 342.469C356.077 345.43 356.077 350.139 353.116 353.101C350.154 356.062 345.416 356.062 342.454 353.101L255.015 265.647C252.053 262.685 252.053 257.976 255.015 255.015C256.495 253.534 258.717 253.164 260.568 253.164ZM84.7262 273.036L112.95 301.274L102.762 339.67L64.3656 349.858L36.1273 321.62L46.315 283.223L84.7262 273.036Z" fill="#EFC318"/>
</svg>
