<svg width="290" height="290" viewBox="0 0 290 290" fill="none" xmlns="http://www.w3.org/2000/svg">
<path d="M289.375 145C289.375 126.04 285.641 107.266 278.385 89.7501C271.13 72.2337 260.495 56.3179 247.089 42.9115C233.682 29.505 217.766 18.8704 200.25 11.6149C182.734 4.35937 163.96 0.625 145 0.625C126.04 0.625 107.266 4.35937 89.7501 11.6149C72.2337 18.8704 56.3179 29.505 42.9115 42.9115C29.505 56.3179 18.8704 72.2337 11.6149 89.7501C4.35937 107.266 0.625 126.04 0.625 145C0.625001 183.291 15.8359 220.013 42.9115 247.089C69.987 274.164 106.709 289.375 145 289.375C183.291 289.375 220.013 274.164 247.089 247.089C274.164 220.013 289.375 183.291 289.375 145ZM24.6875 145C24.6875 113.091 37.3632 82.4892 59.9262 59.9262C82.4892 37.3632 113.091 24.6875 145 24.6875C176.909 24.6875 207.511 37.3632 230.074 59.9262C252.637 82.4892 265.312 113.091 265.312 145C265.312 176.909 252.637 207.511 230.074 230.074C207.511 252.637 176.909 265.312 145 265.312C113.091 265.312 82.4892 252.637 59.9262 230.074C37.3632 207.511 24.6875 176.909 24.6875 145ZM120.938 114.922C120.938 117.292 120.471 119.639 119.564 121.828C118.657 124.018 117.327 126.007 115.652 127.683C113.976 129.359 111.986 130.688 109.797 131.595C107.607 132.502 105.261 132.969 102.891 132.969C100.521 132.969 98.1739 132.502 95.9844 131.595C93.7948 130.688 91.8054 129.359 90.1296 127.683C88.4538 126.007 87.1244 124.018 86.2175 121.828C85.3105 119.639 84.8438 117.292 84.8438 114.922C84.8438 110.136 86.7451 105.545 90.1296 102.161C93.514 98.7764 98.1043 96.875 102.891 96.875C107.677 96.875 112.267 98.7764 115.652 102.161C119.036 105.545 120.938 110.136 120.938 114.922ZM205.156 114.922C205.156 119.708 203.255 124.299 199.87 127.683C196.486 131.067 191.896 132.969 187.109 132.969C182.323 132.969 177.733 131.067 174.348 127.683C170.964 124.299 169.062 119.708 169.062 114.922C169.062 110.136 170.964 105.545 174.348 102.161C177.733 98.7764 182.323 96.875 187.109 96.875C191.896 96.875 196.486 98.7764 199.87 102.161C203.255 105.545 205.156 110.136 205.156 114.922ZM100.051 212.904C122.309 186.532 167.667 186.532 189.949 212.904C190.943 214.183 192.185 215.249 193.601 216.036C195.017 216.823 196.578 217.316 198.189 217.486C199.8 217.655 201.429 217.498 202.978 217.022C204.526 216.547 205.963 215.764 207.202 214.72C208.441 213.675 209.456 212.392 210.186 210.946C210.917 209.5 211.348 207.921 211.453 206.305C211.559 204.688 211.337 203.067 210.801 201.538C210.264 200.009 209.425 198.605 208.333 197.408C176.45 159.63 113.526 159.63 81.6675 197.408C80.5751 198.605 79.7356 200.009 79.1993 201.538C78.6631 203.067 78.4411 204.688 78.5466 206.305C78.6522 207.921 79.0832 209.5 79.8138 210.946C80.5443 212.392 81.5594 213.675 82.7981 214.72C84.0368 215.764 85.4736 216.547 87.0224 217.022C88.5712 217.498 90.2 217.655 91.8112 217.486C93.4224 217.316 94.9827 216.823 96.3987 216.036C97.8146 215.249 99.057 214.183 100.051 212.904Z" fill="#EFC318"/>
</svg>
