<svg width="300" height="287" viewBox="0 0 300 287" fill="none" xmlns="http://www.w3.org/2000/svg">
<path d="M133.974 110.417H166.058V190.625H133.974V110.417ZM133.958 206.667H166.042V238.75H133.958V206.667Z" fill="#EFC318"/>
<path d="M178.362 17.3751C172.779 6.86782 161.903 0.338867 150 0.338867C138.097 0.338867 127.221 6.86783 121.638 17.3912L3.92454 239.777C1.31244 244.66 0.0185289 250.14 0.170436 255.677C0.322343 261.213 1.91482 266.614 4.79079 271.347C7.62533 276.101 11.6508 280.034 16.4699 282.757C21.289 285.481 26.7349 286.9 32.2702 286.875H267.73C279.087 286.875 289.37 281.068 295.225 271.347C298.097 266.612 299.686 261.212 299.838 255.676C299.99 250.141 298.699 244.662 296.091 239.777L178.362 17.3751ZM32.2702 254.792L150 32.4062L267.81 254.792H32.2702Z" fill="#EFC318"/>
</svg>
